<svg width="317" height="624" viewBox="0 0 317 624" fill="none" xmlns="http://www.w3.org/2000/svg">
<g opacity="0.3" clip-path="url(#clip0_6018_1038)" filter="url(#filter0_f_6018_1038)">
<path d="M166.722 84.5278H-156.722C-192.876 84.5278 -222.184 113.836 -222.184 149.99V473.433C-222.184 509.587 -192.876 538.896 -156.722 538.896H166.722C202.875 538.896 232.184 509.587 232.184 473.433V149.99C232.184 113.836 202.875 84.5278 166.722 84.5278Z" stroke="#048C80" stroke-miterlimit="10"/>
<path d="M169.839 222.487V314.389C84.4981 313.556 14.9557 246.69 9.89624 162.41V146.873H97.1467C97.1303 147.297 97.1303 147.722 97.1303 148.146C97.1303 188.67 129.527 221.622 169.839 222.487Z" fill="url(#paint0_linear_6018_1038)"/>
<path d="M169.839 328.897V412.068C132.987 413.014 102.826 440.759 98.0933 476.551H10.5165C17.6649 394.441 86.1139 329.877 169.839 328.897Z" fill="url(#paint1_linear_6018_1038)"/>
</g>
<defs>
<filter id="filter0_f_6018_1038" x="-307" y="-0.288086" width="624" height="624" filterUnits="userSpaceOnUse" color-interpolation-filters="sRGB">
<feFlood flood-opacity="0" result="BackgroundImageFix"/>
<feBlend mode="normal" in="SourceGraphic" in2="BackgroundImageFix" result="shape"/>
<feGaussianBlur stdDeviation="42" result="effect1_foregroundBlur_6018_1038"/>
</filter>
<linearGradient id="paint0_linear_6018_1038" x1="169.839" y1="146.873" x2="-64.5998" y2="309.108" gradientUnits="userSpaceOnUse">
<stop stop-color="#AAD9D1"/>
<stop offset="1" stop-color="#017373"/>
</linearGradient>
<linearGradient id="paint1_linear_6018_1038" x1="169.839" y1="328.897" x2="-44.4572" y2="496.49" gradientUnits="userSpaceOnUse">
<stop stop-color="#AAD9D1"/>
<stop offset="1" stop-color="#017373"/>
</linearGradient>
<clipPath id="clip0_6018_1038">
<rect width="456" height="456" fill="white" transform="translate(-223 83.7119)"/>
</clipPath>
</defs>
</svg>
