<svg width="95" height="24" viewBox="0 0 95 24" fill="none" xmlns="http://www.w3.org/2000/svg">
<g clip-path="url(#clip0_4054_407)" filter="url(#filter0_d_4054_407)">
<path d="M52.6421 11.8095H54.5073V4.77409H52.6421V11.8095ZM52.6421 3.67696H54.5073V2.00381H52.6421V3.67696Z" fill="#AAD9D1"/>
<path d="M55.7092 14.1135H57.5744V11.0141H57.6016C57.9992 11.6175 58.644 12.0153 59.6312 12.0153C61.4416 12.0153 62.676 10.5753 62.676 8.29869C62.676 6.10437 61.4828 4.58209 59.6176 4.58209C58.6576 4.58209 57.9992 5.03469 57.5468 5.65181H57.5056V4.77409H55.7092V14.1135ZM59.2336 10.4655C58.1228 10.4655 57.5332 9.62897 57.5332 8.35353C57.5332 7.09181 57.9992 6.09069 59.1652 6.09069C60.3172 6.09069 60.7832 7.02325 60.7832 8.35353C60.7832 9.68381 60.18 10.4655 59.2336 10.4655Z" fill="#AAD9D1"/>
<path d="M66.3964 12.0153C68.152 12.0153 69.3588 11.165 69.3588 9.75237C69.3588 8.10669 68.056 7.77753 66.8764 7.53069C65.8752 7.32497 64.9428 7.27009 64.9428 6.66669C64.9428 6.15925 65.4228 5.88497 66.1496 5.88497C66.9452 5.88497 67.4252 6.15925 67.5072 6.91353H69.194C69.0572 5.50097 68.0284 4.58209 66.1772 4.58209C64.5724 4.58209 63.3108 5.30897 63.3108 6.83125C63.3108 8.36725 64.5452 8.71009 65.8068 8.95697C66.7668 9.14897 67.658 9.21753 67.658 9.88953C67.658 10.3833 67.192 10.6987 66.3692 10.6987C65.5324 10.6987 64.9564 10.3421 64.8332 9.53297H63.1052C63.2148 11.0278 64.3532 12.0153 66.3964 12.0153Z" fill="#AAD9D1"/>
<path d="M76.4401 11.8095V4.77408H74.5749V8.83352C74.5749 9.76608 74.0401 10.4244 73.1625 10.4244C72.3669 10.4244 71.9969 9.9718 71.9969 9.14896V4.77408H70.1453V9.46436C70.1453 11.0004 71.0229 12.0015 72.5865 12.0015C73.5741 12.0015 74.1225 11.6312 74.6025 10.9867H74.6437V11.8095H76.4401Z" fill="#AAD9D1"/>
<path d="M77.6465 11.8095H79.5117V7.72269C79.5117 6.79009 80.0193 6.18669 80.7737 6.18669C81.4593 6.18669 81.8569 6.59809 81.8569 7.39353V11.8095H83.7221V7.72269C83.7221 6.79009 84.2021 6.18669 84.9837 6.18669C85.6697 6.18669 86.0673 6.59809 86.0673 7.39353V11.8095H87.9325V7.07809C87.9325 5.54209 87.0957 4.58209 85.6145 4.58209C84.7233 4.58209 83.9825 5.04837 83.5025 5.81637H83.4753C83.1325 5.07581 82.4193 4.58209 81.5277 4.58209C80.5541 4.58209 79.8685 5.07581 79.4845 5.72037H79.4433V4.77409H77.6465V11.8095Z" fill="#AAD9D1"/>
<path d="M4.02979 11.8095H5.89493V2.00381H4.02979V11.8095Z" fill="#AAD9D1"/>
<path d="M10.4555 12.0153C12.636 12.0153 14.1309 10.397 14.1309 8.29869C14.1309 6.20037 12.636 4.58209 10.4555 4.58209C8.27488 4.58209 6.78003 6.20037 6.78003 8.29869C6.78003 10.397 8.27488 12.0153 10.4555 12.0153ZM10.4555 10.589C9.30348 10.589 8.6726 9.67009 8.6726 8.29869C8.6726 6.92725 9.30348 5.99469 10.4555 5.99469C11.5938 5.99469 12.2383 6.92725 12.2383 8.29869C12.2383 9.67009 11.5938 10.589 10.4555 10.589Z" fill="#AAD9D1"/>
<path d="M18.0973 14.2095C19.1396 14.2095 20.0447 13.9627 20.6344 13.4141C21.1556 12.9341 21.471 12.2621 21.471 11.2747V4.77409H19.6745V5.51469H19.647C19.2219 4.92497 18.5773 4.58209 17.6996 4.58209C15.9167 4.58209 14.655 5.92609 14.655 8.02437C14.655 10.1501 16.191 11.3844 17.7545 11.3844C18.6459 11.3844 19.1807 11.0278 19.5921 10.5615H19.6333V11.3295C19.6333 12.2895 19.1259 12.797 18.0699 12.797C17.2059 12.797 16.8081 12.4541 16.6573 12.0153H14.8059C14.9979 13.3867 16.1773 14.2095 18.0973 14.2095ZM18.0699 9.88953C17.1099 9.88953 16.479 9.19009 16.479 7.99697C16.479 6.81753 17.1099 6.07697 18.0561 6.07697C19.1807 6.07697 19.7293 6.95469 19.7293 7.98325C19.7293 9.02553 19.2493 9.88953 18.0699 9.88953Z" fill="#AAD9D1"/>
<path d="M26.0045 12.0153C28.1851 12.0153 29.68 10.397 29.68 8.29869C29.68 6.20037 28.1851 4.58209 26.0045 4.58209C23.824 4.58209 22.3291 6.20037 22.3291 8.29869C22.3291 10.397 23.824 12.0153 26.0045 12.0153ZM26.0045 10.589C24.8525 10.589 24.2217 9.67009 24.2217 8.29869C24.2217 6.92725 24.8525 5.99469 26.0045 5.99469C27.1428 5.99469 27.7874 6.92725 27.7874 8.29869C27.7874 9.67009 27.1428 10.589 26.0045 10.589Z" fill="#AAD9D1"/>
<path d="M88.6101 3.61904C88.6101 3.30344 88.8661 3.04761 89.1817 3.04761H90.3245C90.6401 3.04761 90.8961 3.30344 90.8961 3.61904C90.8961 3.93463 90.6401 4.19047 90.3245 4.19047H89.1817C88.8661 4.19047 88.6101 3.93463 88.6101 3.61904Z" fill="#AAD9D1"/>
<path fill-rule="evenodd" clip-rule="evenodd" d="M40.9912 0C45.4093 0 48.9913 3.58172 48.9913 8C48.9913 12.4183 45.4093 16 40.9912 16C36.5729 16 32.9912 12.4183 32.9912 8C32.9912 3.58172 36.5729 0 40.9912 0ZM40.7021 0.598636C39.7894 0.727076 38.9203 1.46043 38.2457 2.68696C38.0501 3.04273 37.8735 3.43578 37.7196 3.86018C38.6369 3.62967 39.6446 3.49377 40.7021 3.47275V0.598636ZM37.0435 4.05232C37.2349 3.45183 37.4689 2.89936 37.739 2.40826C38.0734 1.80024 38.4703 1.27518 38.9174 0.871908C36.4859 1.57809 34.5693 3.49472 33.8631 5.92628C34.2664 5.47912 34.7914 5.08224 35.3995 4.74784C35.8906 4.47772 36.443 4.24364 37.0435 4.05232ZM36.8514 4.72844C36.6209 5.64572 36.485 6.65336 36.4639 7.71084H33.5898C33.7183 6.79816 34.4516 5.92912 35.6782 5.25456C36.0339 5.05888 36.427 4.88232 36.8514 4.72844ZM37.0424 7.71084C37.0663 6.5568 37.2324 5.47336 37.5073 4.51608C38.4646 4.2412 39.548 4.07504 40.7021 4.05116V5.30032C40.2715 6.40248 39.3935 7.28048 38.2913 7.71084H37.0424ZM36.4639 8.28916H33.5898C33.7183 9.20184 34.4516 10.0708 35.6782 10.7454C36.0339 10.9411 36.427 11.1177 36.8514 11.2716C36.6209 10.3543 36.485 9.34664 36.4639 8.28916ZM37.5073 11.4839C37.2324 10.5266 37.0663 9.4432 37.0424 8.28916H38.2913C39.3935 8.71952 40.2715 9.59752 40.7021 10.6997V11.9488C39.548 11.925 38.4646 11.7588 37.5073 11.4839ZM37.0435 11.9477C36.443 11.7564 35.8906 11.5223 35.3995 11.2522C34.7914 10.9178 34.2664 10.5209 33.8631 10.0737C34.5693 12.5053 36.4859 14.4219 38.9174 15.1281C38.4703 14.7248 38.0734 14.1998 37.739 13.5917C37.4689 13.1006 37.2349 12.5482 37.0435 11.9477ZM40.7021 15.4014C39.7894 15.2729 38.9203 14.5396 38.2457 13.313C38.0501 12.9573 37.8735 12.5642 37.7196 12.1398C38.6369 12.3703 39.6446 12.5062 40.7021 12.5272V15.4014ZM43.0649 15.1281C43.5121 14.7248 43.9089 14.1998 44.2433 13.5917C44.5133 13.1006 44.7477 12.5482 44.9389 11.9477C45.5393 11.7564 46.0917 11.5223 46.5829 11.2522C47.1909 10.9178 47.7161 10.5209 48.1193 10.0737C47.4129 12.5053 45.4965 14.4219 43.0649 15.1281ZM44.2629 12.1398C44.1089 12.5642 43.9321 12.9573 43.7365 13.313C43.0621 14.5396 42.193 15.2729 41.2803 15.4014V12.5272C42.3378 12.5062 43.3454 12.3703 44.2629 12.1398ZM45.1309 11.2716C45.5553 11.1177 45.9485 10.9411 46.3041 10.7454C47.5309 10.0709 48.2641 9.20184 48.3925 8.28916H45.5185C45.4973 9.34664 45.3613 10.3543 45.1309 11.2716ZM44.9401 8.28916C44.9161 9.4432 44.7501 10.5266 44.4749 11.4839C43.5178 11.7588 42.4344 11.925 41.2803 11.9488V10.7006C41.7107 9.59804 42.589 8.71964 43.6915 8.28916H44.9401ZM45.5185 7.71084H48.3925C48.2641 6.79816 47.5309 5.92912 46.3041 5.25456C45.9485 5.05888 45.5553 4.88232 45.1309 4.72844C45.3613 5.64572 45.4973 6.65336 45.5185 7.71084ZM44.4749 4.51608C44.7501 5.47336 44.9161 6.5568 44.9401 7.71084H43.6915C42.589 7.28036 41.7107 6.40196 41.2803 5.2994V4.05116C42.4344 4.07504 43.5178 4.2412 44.4749 4.51608ZM44.9389 4.05232C45.5393 4.24364 46.0917 4.47772 46.5829 4.74784C47.1909 5.08224 47.7161 5.47912 48.1193 5.92628C47.4129 3.49472 45.4965 1.57809 43.0649 0.871908C43.5121 1.27518 43.9089 1.80024 44.2433 2.40826C44.5133 2.89936 44.7477 3.45183 44.9389 4.05232ZM41.2803 0.598636C42.193 0.727076 43.0621 1.46043 43.7365 2.68696C43.9321 3.04274 44.1089 3.43578 44.2629 3.86018C43.3454 3.62967 42.3378 3.49377 41.2803 3.47275V0.598636Z" fill="#AAD9D1"/>
</g>
<defs>
<filter id="filter0_d_4054_407" x="-0.299927" y="0" width="95.2" height="24" filterUnits="userSpaceOnUse" color-interpolation-filters="sRGB">
<feFlood flood-opacity="0" result="BackgroundImageFix"/>
<feColorMatrix in="SourceAlpha" type="matrix" values="0 0 0 0 0 0 0 0 0 0 0 0 0 0 0 0 0 0 127 0" result="hardAlpha"/>
<feOffset dy="4"/>
<feGaussianBlur stdDeviation="2"/>
<feComposite in2="hardAlpha" operator="out"/>
<feColorMatrix type="matrix" values="0 0 0 0 0 0 0 0 0 0 0 0 0 0 0 0 0 0 0.25 0"/>
<feBlend mode="normal" in2="BackgroundImageFix" result="effect1_dropShadow_4054_407"/>
<feBlend mode="normal" in="SourceGraphic" in2="effect1_dropShadow_4054_407" result="shape"/>
</filter>
<clipPath id="clip0_4054_407">
<rect width="87.2" height="16" fill="white" transform="translate(3.70007)"/>
</clipPath>
</defs>
</svg>
