<svg width="82" height="16" viewBox="0 0 82 16" fill="none" xmlns="http://www.w3.org/2000/svg">
<g clip-path="url(#clip0_4054_393)">
<path fill-rule="evenodd" clip-rule="evenodd" d="M11.1223 4.67412C10.4645 4.2346 9.69114 4 8.90002 4V0C10.4823 0 12.029 0.469192 13.3446 1.34824C14.6602 2.22729 15.6855 3.47672 16.2911 4.93852C16.8965 6.40032 17.055 8.00888 16.7463 9.56072C16.4376 11.1126 15.6757 12.538 14.5569 13.6568C13.4381 14.7757 12.0126 15.5376 10.4607 15.8463C8.90891 16.155 7.30034 15.9965 5.83854 15.391C4.37674 14.7855 3.12732 13.7602 2.24827 12.4446C1.36922 11.129 0.900024 9.58224 0.900024 8H4.90002C4.90002 8.79112 5.13462 9.56448 5.57414 10.2223C6.01366 10.8801 6.63838 11.3928 7.3693 11.6955C8.10018 11.9983 8.90446 12.0775 9.68038 11.9231C10.4563 11.7688 11.169 11.3878 11.7285 10.8284C12.2879 10.269 12.6688 9.55628 12.8231 8.78036C12.9775 8.00444 12.8983 7.20016 12.5955 6.46928C12.2928 5.73836 11.7801 5.11364 11.1223 4.67412Z" fill="#AAD9D1"/>
<path fill-rule="evenodd" clip-rule="evenodd" d="M4.90002 2.11397e-06C4.90002 0.52529 4.79656 1.04543 4.59554 1.53074C4.39452 2.01604 4.09989 2.45699 3.72845 2.82843C3.35702 3.19987 2.91606 3.4945 2.43076 3.69552C1.94545 3.89654 1.42531 4 0.900025 4L0.900024 8C1.9506 8 2.99089 7.79308 3.96149 7.39104C4.9321 6.989 5.81402 6.39972 6.55686 5.65684C7.29974 4.914 7.88902 4.03208 8.29106 3.06147C8.6931 2.09086 8.90002 1.05057 8.90002 0L4.90002 2.11397e-06Z" fill="#AAD9D1"/>
<path d="M51.1476 5.78101H49.2068V11.9459H51.1476V5.78101Z" fill="#AAD9D1"/>
<path d="M49.4229 4.62663C49.6257 4.82959 49.8793 4.93107 50.1837 4.93107C50.4881 4.93107 50.7377 4.82959 50.9321 4.62663C51.1269 4.41523 51.2241 4.16151 51.2241 3.86553C51.2241 3.5611 51.1269 3.30738 50.9321 3.10443C50.7377 2.90146 50.4881 2.79999 50.1837 2.79999C49.8793 2.79999 49.6257 2.90146 49.4229 3.10443C49.2281 3.30738 49.1309 3.5611 49.1309 3.86553C49.1309 4.16151 49.2281 4.41523 49.4229 4.62663Z" fill="#AAD9D1"/>
<path d="M21.3625 11.9459V2.99026H23.3541V10.1954H27.3246V11.9459H21.3625Z" fill="#AAD9D1"/>
<path fill-rule="evenodd" clip-rule="evenodd" d="M30.9109 12.0854C30.2767 12.0854 29.7017 11.9459 29.1858 11.6668C28.6784 11.3793 28.2767 10.9903 27.9807 10.4998C27.6847 10.0093 27.5367 9.45965 27.5367 8.85077C27.5367 8.24189 27.6847 7.69645 27.9807 7.21441C28.2767 6.73237 28.6784 6.35181 29.1858 6.07277C29.6932 5.78521 30.2683 5.64145 30.9109 5.64145C31.5537 5.64145 32.1287 5.78101 32.6361 6.06005C33.1435 6.33913 33.5452 6.72393 33.8412 7.21441C34.1372 7.69645 34.2852 8.24189 34.2852 8.85077C34.2852 9.45965 34.1372 10.0093 33.8412 10.4998C33.5452 10.9903 33.1435 11.3793 32.6361 11.6668C32.1287 11.9459 31.5537 12.0854 30.9109 12.0854ZM30.9109 10.3222C31.19 10.3222 31.4353 10.263 31.6467 10.1446C31.8581 10.0178 32.0188 9.84445 32.1287 9.62457C32.2471 9.39625 32.3063 9.13829 32.3063 8.85077C32.3063 8.56325 32.2471 8.31377 32.1287 8.10237C32.0103 7.88249 31.8454 7.71337 31.634 7.59497C31.431 7.46809 31.19 7.40469 30.9109 7.40469C30.6403 7.40469 30.3993 7.46809 30.1879 7.59497C29.9765 7.71337 29.8116 7.88249 29.6932 8.10237C29.5748 8.32225 29.5156 8.57593 29.5156 8.86345C29.5156 9.14253 29.5748 9.39625 29.6932 9.62457C29.8116 9.84445 29.9765 10.0178 30.1879 10.1446C30.3993 10.263 30.6403 10.3222 30.9109 10.3222Z" fill="#AAD9D1"/>
<path fill-rule="evenodd" clip-rule="evenodd" d="M35.8224 14.3561C36.3382 14.5928 36.9344 14.7112 37.611 14.7112C38.2706 14.7112 38.8583 14.5802 39.3742 14.318C39.89 14.0558 40.2959 13.6922 40.5919 13.2271C40.8879 12.762 41.0361 12.2123 41.0361 11.578V5.78099H39.1331V6.19519C38.9916 6.07607 38.8309 5.97607 38.6511 5.89515C38.3213 5.73447 37.945 5.65411 37.5222 5.65411C36.9556 5.65411 36.4524 5.78943 36.0126 6.06003C35.5728 6.32219 35.2262 6.68583 34.9724 7.15095C34.7187 7.60763 34.5919 8.12347 34.5919 8.69855C34.5919 9.26515 34.7187 9.78099 34.9724 10.2461C35.2262 10.7112 35.5728 11.0791 36.0126 11.3497C36.4524 11.6203 36.9556 11.7556 37.5222 11.7556C37.9365 11.7556 38.3128 11.6753 38.6511 11.5146C38.815 11.4368 38.963 11.3451 39.0951 11.2394V11.6288C39.0951 12.0601 38.9556 12.3941 38.6765 12.6309C38.4059 12.8677 38.0296 12.9861 37.5475 12.9861C37.1585 12.9861 36.8245 12.9184 36.5454 12.7831C36.2748 12.6478 36.0295 12.4491 35.8096 12.1869L34.6173 13.3793C34.9132 13.8022 35.315 14.1278 35.8224 14.3561ZM38.5877 9.85287C38.3932 9.97127 38.1606 10.0305 37.89 10.0305C37.6194 10.0305 37.3826 9.97127 37.1796 9.85287C36.9851 9.73447 36.8329 9.57379 36.723 9.37083C36.613 9.15943 36.5581 8.93531 36.5581 8.69855C36.5581 8.44483 36.613 8.21651 36.723 8.01355C36.8329 7.81059 36.9894 7.64991 37.1923 7.53151C37.3953 7.41311 37.6278 7.35391 37.89 7.35391C38.1606 7.35391 38.3932 7.41311 38.5877 7.53151C38.7906 7.64991 38.9428 7.81059 39.0444 8.01355C39.1543 8.21651 39.2092 8.44483 39.2092 8.69855C39.2092 8.95223 39.1543 9.18055 39.0444 9.38351C38.9428 9.57803 38.7906 9.73447 38.5877 9.85287Z" fill="#AAD9D1"/>
<path fill-rule="evenodd" clip-rule="evenodd" d="M45.1204 12.0854C44.486 12.0854 43.9108 11.9459 43.3952 11.6668C42.8876 11.3793 42.486 10.9903 42.19 10.4998C41.894 10.0093 41.746 9.45965 41.746 8.85077C41.746 8.24189 41.894 7.69645 42.19 7.21441C42.486 6.73237 42.8876 6.35181 43.3952 6.07277C43.9024 5.78521 44.4776 5.64145 45.1204 5.64145C45.7628 5.64145 46.338 5.78101 46.8452 6.06005C47.3528 6.33913 47.7544 6.72393 48.0504 7.21441C48.3464 7.69645 48.4944 8.24189 48.4944 8.85077C48.4944 9.45965 48.3464 10.0093 48.0504 10.4998C47.7544 10.9903 47.3528 11.3793 46.8452 11.6668C46.338 11.9459 45.7628 12.0854 45.1204 12.0854ZM45.1204 10.3222C45.3992 10.3222 45.6444 10.263 45.856 10.1446C46.0672 10.0178 46.228 9.84445 46.338 9.62457C46.4564 9.39625 46.5156 9.13829 46.5156 8.85077C46.5156 8.56325 46.4564 8.31377 46.338 8.10237C46.2196 7.88249 46.0548 7.71337 45.8432 7.59497C45.6404 7.46809 45.3992 7.40469 45.1204 7.40469C44.8496 7.40469 44.6084 7.46809 44.3972 7.59497C44.1856 7.71337 44.0208 7.88249 43.9024 8.10237C43.784 8.32225 43.7248 8.57593 43.7248 8.86345C43.7248 9.14253 43.784 9.39625 43.9024 9.62457C44.0208 9.84445 44.1856 10.0178 44.3972 10.1446C44.6084 10.263 44.8496 10.3222 45.1204 10.3222Z" fill="#AAD9D1"/>
<path fill-rule="evenodd" clip-rule="evenodd" d="M55.8125 12.0728C55.3985 12.0728 55.0177 11.9924 54.6709 11.8318C54.4885 11.7472 54.3237 11.6462 54.1765 11.5289V14.5464H52.2609V5.78099H54.2017V6.20647C54.3425 6.09131 54.4989 5.99175 54.6709 5.90783C55.0177 5.73867 55.3985 5.65411 55.8125 5.65411C56.3961 5.65411 56.9121 5.79367 57.3601 6.07275C57.8169 6.35179 58.1721 6.73235 58.4257 7.21439C58.6881 7.69643 58.8189 8.24611 58.8189 8.86343C58.8189 9.48079 58.6881 10.0305 58.4257 10.5125C58.1721 10.9946 57.8169 11.3751 57.3601 11.6542C56.9121 11.9332 56.3961 12.0728 55.8125 12.0728ZM55.4577 10.3222C55.7365 10.3222 55.9777 10.2588 56.1805 10.132C56.3921 10.0051 56.5569 9.83171 56.6753 9.61187C56.7937 9.39199 56.8529 9.14251 56.8529 8.86343C56.8529 8.57591 56.7937 8.32223 56.6753 8.10235C56.5569 7.88247 56.3921 7.71335 56.1805 7.59495C55.9777 7.46807 55.7409 7.40467 55.4701 7.40467C55.1997 7.40467 54.9585 7.46807 54.7473 7.59495C54.5441 7.71335 54.3837 7.88247 54.2653 8.10235C54.1469 8.32223 54.0877 8.57591 54.0877 8.86343C54.0877 9.14251 54.1425 9.39199 54.2525 9.61187C54.3709 9.83171 54.5357 10.0051 54.7473 10.132C54.9585 10.2588 55.1953 10.3222 55.4577 10.3222Z" fill="#AAD9D1"/>
<path d="M60.7185 11.9586C61.0737 12.0516 61.4329 12.0981 61.7965 12.0981C62.5661 12.0981 63.1749 11.9206 63.6233 11.5654C64.0797 11.2102 64.3081 10.7324 64.3081 10.132C64.3081 9.74295 64.2365 9.43003 64.0925 9.19327C63.9489 8.94803 63.7629 8.75351 63.5345 8.60975C63.3061 8.46599 63.0649 8.35179 62.8113 8.26723C62.5577 8.18267 62.3165 8.11079 62.0885 8.05159C61.8601 7.99239 61.6741 7.92475 61.5301 7.84863C61.3865 7.77251 61.3145 7.67103 61.3145 7.54419C61.3145 7.42579 61.3697 7.33699 61.4793 7.27779C61.5893 7.21015 61.7541 7.17635 61.9741 7.17635C62.2025 7.17635 62.4349 7.22283 62.6717 7.31587C62.9169 7.40887 63.1369 7.56959 63.3313 7.79791L64.4349 6.68163C64.1561 6.32643 63.7925 6.06003 63.3441 5.88247C62.9045 5.69643 62.4225 5.60339 61.8981 5.60339C61.3993 5.60339 60.9637 5.68795 60.5917 5.85707C60.2193 6.02623 59.9317 6.25879 59.7289 6.55475C59.5261 6.84227 59.4245 7.18479 59.4245 7.58227C59.4245 7.95435 59.4965 8.26303 59.6401 8.50827C59.7837 8.74503 59.9701 8.93111 60.1981 9.06639C60.4265 9.20171 60.6677 9.30743 60.9213 9.38351C61.1749 9.45963 61.4161 9.53151 61.6445 9.59919C61.8725 9.65839 62.0589 9.73027 62.2025 9.81483C62.3549 9.89095 62.4309 10.0051 62.4309 10.1573C62.4309 10.2757 62.3673 10.3687 62.2405 10.4364C62.1221 10.504 61.9489 10.5379 61.7205 10.5379C61.3905 10.5379 61.0861 10.4787 60.8073 10.3603C60.5281 10.2334 60.2869 10.0601 60.0841 9.84019L58.9805 10.9565C59.1921 11.1848 59.4457 11.3878 59.7417 11.5654C60.0461 11.7345 60.3717 11.8656 60.7185 11.9586Z" fill="#AAD9D1"/>
<path d="M67.8472 12.0854C67.2808 12.0854 66.7776 11.9713 66.338 11.743C65.9064 11.5062 65.5684 11.1848 65.3232 10.7789C65.0776 10.3645 64.9552 9.89097 64.9552 9.35817V5.78101H66.896V9.33281C66.896 9.54421 66.9296 9.72605 66.9976 9.87825C67.0736 10.0305 67.1836 10.1489 67.3272 10.2334C67.4712 10.318 67.6444 10.3603 67.8472 10.3603C68.1348 10.3603 68.3632 10.2715 68.5324 10.0939C68.7016 9.90785 68.786 9.65417 68.786 9.33281V5.78101H70.7268V9.34549C70.7268 9.88673 70.6044 10.3645 70.3588 10.7789C70.1136 11.1848 69.7756 11.5062 69.344 11.743C68.9128 11.9713 68.414 12.0854 67.8472 12.0854Z" fill="#AAD9D1"/>
<path d="M73.6324 5.78099H71.6917V11.9459H73.6324V8.34335C73.6324 8.13195 73.6748 7.95435 73.7592 7.81059C73.8524 7.66683 73.9752 7.55687 74.1272 7.48079C74.2796 7.39619 74.4528 7.35391 74.6472 7.35391C74.9264 7.35391 75.1588 7.44271 75.3448 7.62031C75.5396 7.78943 75.6368 8.03047 75.6368 8.34335V11.9459H77.5776V8.34335C77.5776 8.13195 77.62 7.95435 77.7044 7.81059C77.7976 7.66683 77.92 7.55687 78.0724 7.48079C78.2244 7.39619 78.398 7.35391 78.5925 7.35391C78.8717 7.35391 79.1041 7.44271 79.2901 7.62031C79.4845 7.78943 79.5816 8.03047 79.5816 8.34335V11.9459H81.5229V8.12771C81.5229 7.61187 81.4128 7.17211 81.1928 6.80847C80.9812 6.43635 80.6897 6.15307 80.3177 5.95859C79.9541 5.75559 79.5353 5.65411 79.0617 5.65411C78.5797 5.65411 78.144 5.75983 77.7552 5.97127C77.5024 6.10595 77.2817 6.27979 77.0925 6.49275C76.916 6.26999 76.7016 6.08771 76.4484 5.94587C76.1104 5.75139 75.7256 5.65411 75.2944 5.65411C74.8376 5.65411 74.4277 5.75139 74.0641 5.94587C73.9057 6.02679 73.762 6.12371 73.6324 6.23663V5.78099Z" fill="#AAD9D1"/>
</g>
<defs>
<clipPath id="clip0_4054_393">
<rect width="80.8" height="16" fill="white" transform="translate(0.900024)"/>
</clipPath>
</defs>
</svg>
