<svg width="88" height="16" viewBox="0 0 88 16" fill="none" xmlns="http://www.w3.org/2000/svg">
<g clip-path="url(#clip0_4054_389)">
<path d="M8.80915 16C13.1773 16 16.7182 12.4184 16.7182 8V2.4C16.7182 1.76348 16.4683 1.15303 16.0233 0.702944C15.5783 0.252856 14.9748 0 14.3455 0L9.2046 0V3.5096C9.2046 4.3104 9.25285 5.14 9.66807 5.8216C9.96533 6.31008 10.363 6.72818 10.8341 7.04752C11.3051 7.36686 11.8386 7.57997 12.3983 7.6724L12.5498 7.6972C12.6122 7.71879 12.6664 7.75959 12.7048 7.81388C12.7432 7.86818 12.7638 7.93325 12.7638 8C12.7638 8.06675 12.7432 8.13182 12.7048 8.18612C12.6664 8.24041 12.6122 8.28121 12.5498 8.3028L12.3983 8.3276C11.5806 8.46272 10.8254 8.85423 10.2396 9.44685C9.65366 10.0395 9.2666 10.8033 9.13302 11.6304L9.10851 11.7836C9.08716 11.8468 9.04683 11.9016 8.99315 11.9404C8.93947 11.9792 8.87513 12.0001 8.80915 12.0001C8.74316 12.0001 8.67882 11.9792 8.62514 11.9404C8.57146 11.9016 8.53113 11.8468 8.50979 11.7836L8.48527 11.6304C8.39387 11.0643 8.18317 10.5247 7.86746 10.0482C7.55175 9.57173 7.13842 9.1695 6.6555 8.8688C5.98165 8.4488 5.16147 8.4 4.36977 8.4H0.909546C1.11637 12.6324 4.57383 16 8.80915 16Z" fill="#AAD9D1"/>
<path d="M0.900024 7.6H4.36974C5.16144 7.6 5.98162 7.5512 6.65547 7.1312C7.18222 6.80292 7.62564 6.35441 7.95019 5.8216C8.36542 5.14 8.41366 4.3104 8.41366 3.5096V0H3.27275C2.64347 0 2.03995 0.252856 1.59498 0.702944C1.15001 1.15303 0.900024 1.76348 0.900024 2.4L0.900024 7.6ZM19.2709 0.8C19.2709 1.01217 19.1875 1.21566 19.0392 1.36569C18.8909 1.51571 18.6897 1.6 18.48 1.6C18.2702 1.6 18.069 1.51571 17.9207 1.36569C17.7724 1.21566 17.689 1.01217 17.689 0.8C17.689 0.587827 17.7724 0.384344 17.9207 0.234315C18.069 0.0842855 18.2702 0 18.48 0C18.6897 0 18.8909 0.0842855 19.0392 0.234315C19.1875 0.384344 19.2709 0.587827 19.2709 0.8ZM84.6221 4.8416C86.8331 4.8416 87.9 6.4036 87.9 8.2128V11.6108H85.5862V8.616C85.5862 7.796 85.2904 7.1192 84.4422 7.1192C83.5939 7.1192 83.3112 7.796 83.3112 8.616V11.6104H80.9974V8.616C80.9974 7.796 80.7146 7.1192 79.866 7.1192C79.0177 7.1192 78.7219 7.796 78.7219 8.616V11.6104H76.4085V8.2124C76.4085 6.4032 77.4751 4.8412 79.686 4.8412C80.8946 4.8412 81.7685 5.3228 82.1671 6.1168C82.591 5.3228 83.5168 4.8408 84.6221 4.8408V4.8416ZM72.2507 9.528C72.9961 9.528 73.3176 8.838 73.3176 8.0176V5.1016H75.6311V8.304C75.6311 10.2176 74.5258 11.806 72.2507 11.806C69.9753 11.806 68.87 10.218 68.87 8.304V5.1016H71.1838V8.0176C71.1838 8.8376 71.5049 9.528 72.2507 9.528ZM65.4679 11.8188C64.0154 11.8188 63.0769 11.3112 62.5241 10.322L64.1953 9.3716C64.4266 9.788 64.7734 9.9964 65.352 9.9964C65.8277 9.9964 66.046 9.8272 66.046 9.6188C66.046 8.8248 62.6526 9.632 62.6526 7.1068C62.6526 5.8828 63.6808 4.8936 65.4291 4.8936C66.9587 4.8936 67.7943 5.6484 68.1672 6.3776L66.496 7.3408C66.3549 6.9504 65.9175 6.716 65.4805 6.716C65.1464 6.716 64.9664 6.8592 64.9664 7.0544C64.9664 7.8616 68.3598 7.1196 68.3598 9.5668C68.3598 10.9336 67.0358 11.8188 65.4679 11.8188ZM57.384 14.6048H55.0702V8.3432C55.0702 6.3512 56.5484 4.9064 58.6052 4.9064C60.6105 4.9064 62.1401 6.4556 62.1401 8.3432C62.1401 10.426 60.7774 11.806 58.7337 11.806C58.2579 11.806 57.7826 11.6628 57.384 11.4412V14.6048ZM58.6052 9.606C59.3379 9.606 59.8263 9.0332 59.8263 8.356C59.8263 7.6664 59.3379 7.1064 58.6052 7.1064C57.8724 7.1064 57.384 7.6664 57.384 8.3564C57.384 9.0332 57.8724 9.606 58.6052 9.606ZM52.7524 4.412C51.9939 4.412 51.3644 3.774 51.3644 3.006C51.3644 2.238 51.9939 1.6 52.7524 1.6C53.5109 1.6 54.1409 2.238 54.1409 3.006C54.1409 3.774 53.5109 4.412 52.7524 4.412ZM51.5957 5.1016H53.9095V11.6108H51.5957V5.1016ZM47.1563 11.806C45.151 11.806 43.6214 10.244 43.6214 8.3432C43.6214 6.4556 45.151 4.8936 47.1563 4.8936C49.1617 4.8936 50.6913 6.4556 50.6913 8.3432C50.6913 10.244 49.1617 11.806 47.1563 11.806ZM47.1563 9.606C47.8891 9.606 48.3775 9.0332 48.3775 8.356C48.3775 7.6664 47.8891 7.0936 47.1563 7.0936C46.4236 7.0936 45.9352 7.6664 45.9352 8.356C45.9352 9.0332 46.4236 9.606 47.1563 9.606ZM39.2524 14.8C37.6587 14.8 36.5016 14.084 35.9104 12.808L37.8256 11.7668C38.0312 12.2096 38.4168 12.6652 39.2136 12.6652C40.0496 12.6652 40.6021 12.1312 40.6665 11.194C40.3581 11.4676 39.8693 11.6756 39.1369 11.6756C37.3499 11.6756 35.91 10.2828 35.91 8.33C35.91 6.4428 37.44 4.9064 39.4454 4.9064C41.5021 4.9064 42.9803 6.3516 42.9803 8.3432V10.9208C42.9803 13.264 41.3732 14.8 39.2524 14.8ZM39.4066 9.476C40.1006 9.476 40.6278 8.994 40.6278 8.278C40.6278 7.5752 40.101 7.1064 39.4066 7.1064C38.7253 7.1064 38.1855 7.5752 38.1855 8.2784C38.1855 8.9944 38.7253 9.4756 39.4066 9.4756V9.476ZM31.9855 11.806C29.9802 11.806 28.4502 10.244 28.4502 8.3432C28.4502 6.4556 29.9802 4.8936 31.9855 4.8936C33.9905 4.8936 35.5205 6.4556 35.5205 8.3432C35.5205 10.244 33.9909 11.806 31.9855 11.806ZM31.9855 9.606C32.7183 9.606 33.2067 9.0332 33.2067 8.356C33.2067 7.6664 32.7183 7.0936 31.9855 7.0936C31.2527 7.0936 30.7644 7.6664 30.7644 8.356C30.7644 9.0332 31.2527 9.606 31.9855 9.606ZM24.237 2.824V9.3976H28.0678V11.6108H23.9155C22.4503 11.6108 21.8591 10.8296 21.8591 9.5928V2.824H24.237Z" fill="#AAD9D1"/>
</g>
<defs>
<clipPath id="clip0_4054_389">
<rect width="87" height="16" fill="white" transform="translate(0.900024)"/>
</clipPath>
</defs>
</svg>
