<svg width="89" height="16" viewBox="0 0 89 16" fill="none" xmlns="http://www.w3.org/2000/svg">
<g clip-path="url(#clip0_4054_362)">
<path d="M49.842 11.8095H51.7072V4.77409H49.842V11.8095ZM49.842 3.67696H51.7072V2.00381H49.842V3.67696Z" fill="#AAD9D1"/>
<path d="M52.9092 14.1135H54.7744V11.0141H54.8016C55.1992 11.6175 55.844 12.0153 56.8312 12.0153C58.6416 12.0153 59.876 10.5753 59.876 8.29869C59.876 6.10437 58.6828 4.58209 56.8176 4.58209C55.8576 4.58209 55.1992 5.03469 54.7468 5.65181H54.7056V4.77409H52.9092V14.1135ZM56.4336 10.4655C55.3228 10.4655 54.7332 9.62897 54.7332 8.35353C54.7332 7.09181 55.1992 6.09069 56.3652 6.09069C57.5172 6.09069 57.9832 7.02325 57.9832 8.35353C57.9832 9.68381 57.38 10.4655 56.4336 10.4655Z" fill="#AAD9D1"/>
<path d="M63.5964 12.0153C65.352 12.0153 66.5588 11.165 66.5588 9.75237C66.5588 8.10669 65.256 7.77753 64.0764 7.53069C63.0752 7.32497 62.1428 7.27009 62.1428 6.66669C62.1428 6.15925 62.6228 5.88497 63.3496 5.88497C64.1452 5.88497 64.6252 6.15925 64.7072 6.91353H66.394C66.2572 5.50097 65.2284 4.58209 63.3772 4.58209C61.7724 4.58209 60.5108 5.30897 60.5108 6.83125C60.5108 8.36725 61.7452 8.71009 63.0068 8.95697C63.9668 9.14897 64.858 9.21753 64.858 9.88953C64.858 10.3833 64.392 10.6987 63.5692 10.6987C62.7324 10.6987 62.1564 10.3421 62.0332 9.53297H60.3052C60.4148 11.0278 61.5532 12.0153 63.5964 12.0153Z" fill="#AAD9D1"/>
<path d="M73.64 11.8095V4.77408H71.7748V8.83352C71.7748 9.76608 71.24 10.4244 70.3624 10.4244C69.5668 10.4244 69.1968 9.9718 69.1968 9.14896V4.77408H67.3452V9.46436C67.3452 11.0004 68.2228 12.0015 69.7864 12.0015C70.774 12.0015 71.3224 11.6312 71.8024 10.9867H71.8436V11.8095H73.64Z" fill="#AAD9D1"/>
<path d="M74.8464 11.8095H76.7116V7.72269C76.7116 6.79009 77.2192 6.18669 77.9736 6.18669C78.6592 6.18669 79.0568 6.59809 79.0568 7.39353V11.8095H80.922V7.72269C80.922 6.79009 81.402 6.18669 82.1836 6.18669C82.8696 6.18669 83.2672 6.59809 83.2672 7.39353V11.8095H85.1324V7.07809C85.1324 5.54209 84.2956 4.58209 82.8144 4.58209C81.9232 4.58209 81.1824 5.04837 80.7024 5.81637H80.6752C80.3324 5.07581 79.6192 4.58209 78.7276 4.58209C77.754 4.58209 77.0684 5.07581 76.6844 5.72037H76.6432V4.77409H74.8464V11.8095Z" fill="#AAD9D1"/>
<path d="M1.22974 11.8095H3.09488V2.00381H1.22974V11.8095Z" fill="#AAD9D1"/>
<path d="M7.65543 12.0153C9.83599 12.0153 11.3308 10.397 11.3308 8.29869C11.3308 6.20037 9.83599 4.58209 7.65543 4.58209C5.47483 4.58209 3.97998 6.20037 3.97998 8.29869C3.97998 10.397 5.47483 12.0153 7.65543 12.0153ZM7.65543 10.589C6.50343 10.589 5.87255 9.67009 5.87255 8.29869C5.87255 6.92725 6.50343 5.99469 7.65543 5.99469C8.79371 5.99469 9.43827 6.92725 9.43827 8.29869C9.43827 9.67009 8.79371 10.589 7.65543 10.589Z" fill="#AAD9D1"/>
<path d="M15.2973 14.2095C16.3395 14.2095 17.2447 13.9627 17.8344 13.4141C18.3555 12.9341 18.671 12.2621 18.671 11.2747V4.77409H16.8744V5.51469H16.847C16.4218 4.92497 15.7773 4.58209 14.8995 4.58209C13.1167 4.58209 11.855 5.92609 11.855 8.02437C11.855 10.1501 13.391 11.3844 14.9544 11.3844C15.8458 11.3844 16.3807 11.0278 16.7921 10.5615H16.8333V11.3295C16.8333 12.2895 16.3258 12.797 15.2698 12.797C14.4058 12.797 14.0081 12.4541 13.8573 12.0153H12.0058C12.1978 13.3867 13.3773 14.2095 15.2973 14.2095ZM15.2698 9.88953C14.3098 9.88953 13.679 9.19009 13.679 7.99697C13.679 6.81753 14.3098 6.07697 15.2561 6.07697C16.3807 6.07697 16.9293 6.95469 16.9293 7.98325C16.9293 9.02553 16.4493 9.88953 15.2698 9.88953Z" fill="#AAD9D1"/>
<path d="M23.2045 12.0153C25.3851 12.0153 26.8799 10.397 26.8799 8.29869C26.8799 6.20037 25.3851 4.58209 23.2045 4.58209C21.0239 4.58209 19.5291 6.20037 19.5291 8.29869C19.5291 10.397 21.0239 12.0153 23.2045 12.0153ZM23.2045 10.589C22.0525 10.589 21.4217 9.67009 21.4217 8.29869C21.4217 6.92725 22.0525 5.99469 23.2045 5.99469C24.3428 5.99469 24.9874 6.92725 24.9874 8.29869C24.9874 9.67009 24.3428 10.589 23.2045 10.589Z" fill="#AAD9D1"/>
<path d="M85.8101 3.61904C85.8101 3.30344 86.0661 3.04761 86.3817 3.04761H87.5245C87.8401 3.04761 88.0961 3.30344 88.0961 3.61904C88.0961 3.93463 87.8401 4.19047 87.5245 4.19047H86.3817C86.0661 4.19047 85.8101 3.93463 85.8101 3.61904Z" fill="#AAD9D1"/>
<path fill-rule="evenodd" clip-rule="evenodd" d="M38.1912 0C42.6093 0 46.1913 3.58172 46.1913 8C46.1913 12.4183 42.6093 16 38.1912 16C33.7729 16 30.1912 12.4183 30.1912 8C30.1912 3.58172 33.7729 0 38.1912 0ZM37.902 0.598636C36.9893 0.727076 36.1203 1.46043 35.4457 2.68696C35.25 3.04273 35.0734 3.43578 34.9196 3.86018C35.8369 3.62967 36.8445 3.49377 37.902 3.47275V0.598636ZM34.2434 4.05232C34.4348 3.45183 34.6688 2.89936 34.939 2.40826C35.2734 1.80024 35.6702 1.27518 36.1174 0.871908C33.6858 1.57809 31.7692 3.49472 31.063 5.92628C31.4663 5.47912 31.9914 5.08224 32.5994 4.74784C33.0905 4.47772 33.643 4.24364 34.2434 4.05232ZM34.0513 4.72844C33.8208 5.64572 33.6849 6.65336 33.6639 7.71084H30.7898C30.9182 6.79816 31.6516 5.92912 32.8781 5.25456C33.2339 5.05888 33.6269 4.88232 34.0513 4.72844ZM34.2423 7.71084C34.2662 6.5568 34.4324 5.47336 34.7072 4.51608C35.6645 4.2412 36.748 4.07504 37.902 4.05116V5.30032C37.4715 6.40248 36.5934 7.28048 35.4912 7.71084H34.2423ZM33.6639 8.28916H30.7898C30.9182 9.20184 31.6516 10.0708 32.8781 10.7454C33.2339 10.9411 33.6269 11.1177 34.0513 11.2716C33.8208 10.3543 33.6849 9.34664 33.6639 8.28916ZM34.7072 11.4839C34.4324 10.5266 34.2662 9.4432 34.2423 8.28916H35.4912C36.5934 8.71952 37.4715 9.59752 37.902 10.6997V11.9488C36.748 11.925 35.6645 11.7588 34.7072 11.4839ZM34.2434 11.9477C33.643 11.7564 33.0905 11.5223 32.5994 11.2522C31.9914 10.9178 31.4663 10.5209 31.063 10.0737C31.7692 12.5053 33.6858 14.4219 36.1174 15.1281C35.6702 14.7248 35.2734 14.1998 34.939 13.5917C34.6688 13.1006 34.4348 12.5482 34.2434 11.9477ZM37.902 15.4014C36.9893 15.2729 36.1203 14.5396 35.4457 13.313C35.25 12.9573 35.0734 12.5642 34.9196 12.1398C35.8369 12.3703 36.8445 12.5062 37.902 12.5272V15.4014ZM40.2649 15.1281C40.712 14.7248 41.1089 14.1998 41.4433 13.5917C41.7133 13.1006 41.9477 12.5482 42.1389 11.9477C42.7393 11.7564 43.2917 11.5223 43.7829 11.2522C44.3909 10.9178 44.9161 10.5209 45.3193 10.0737C44.6129 12.5053 42.6965 14.4219 40.2649 15.1281ZM41.4629 12.1398C41.3089 12.5642 41.1321 12.9573 40.9365 13.313C40.262 14.5396 39.393 15.2729 38.4803 15.4014V12.5272C39.5378 12.5062 40.5454 12.3703 41.4629 12.1398ZM42.3309 11.2716C42.7553 11.1177 43.1485 10.9411 43.5041 10.7454C44.7309 10.0709 45.4641 9.20184 45.5925 8.28916H42.7185C42.6973 9.34664 42.5613 10.3543 42.3309 11.2716ZM42.1401 8.28916C42.1161 9.4432 41.9501 10.5266 41.6749 11.4839C40.7178 11.7588 39.6343 11.925 38.4803 11.9488V10.7006C38.9107 9.59804 39.789 8.71964 40.8914 8.28916H42.1401ZM42.7185 7.71084H45.5925C45.4641 6.79816 44.7309 5.92912 43.5041 5.25456C43.1485 5.05888 42.7553 4.88232 42.3309 4.72844C42.5613 5.64572 42.6973 6.65336 42.7185 7.71084ZM41.6749 4.51608C41.9501 5.47336 42.1161 6.5568 42.1401 7.71084H40.8915C39.789 7.28036 38.9107 6.40196 38.4803 5.2994V4.05116C39.6343 4.07504 40.7178 4.2412 41.6749 4.51608ZM42.1389 4.05232C42.7393 4.24364 43.2917 4.47772 43.7829 4.74784C44.3909 5.08224 44.9161 5.47912 45.3193 5.92628C44.6129 3.49472 42.6965 1.57809 40.2649 0.871908C40.712 1.27518 41.1089 1.80024 41.4433 2.40826C41.7133 2.89936 41.9477 3.45183 42.1389 4.05232ZM38.4803 0.598636C39.393 0.727076 40.262 1.46043 40.9365 2.68696C41.1321 3.04274 41.3089 3.43578 41.4629 3.86018C40.5454 3.62967 39.5378 3.49377 38.4803 3.47275V0.598636Z" fill="#AAD9D1"/>
</g>
<defs>
<clipPath id="clip0_4054_362">
<rect width="87.2" height="16" fill="white" transform="translate(0.900024)"/>
</clipPath>
</defs>
</svg>
