<svg width="71" height="16" viewBox="0 0 71 16" fill="none" xmlns="http://www.w3.org/2000/svg">
<g clip-path="url(#clip0_4054_350)">
<path fill-rule="evenodd" clip-rule="evenodd" d="M6.1001 11.2C5.56966 11.2 5.06096 10.9893 4.68588 10.6142C4.31081 10.2391 4.1001 9.73043 4.1001 9.2V0H0.100098V9.2C0.100098 12.5136 2.7865 15.2 6.1001 15.2H10.5001V11.2H6.1001ZM18.1001 4C17.6273 4 17.1592 4.09312 16.7224 4.27403C16.2857 4.45495 15.8888 4.72012 15.5545 5.05442C15.2202 5.38871 14.955 5.78557 14.7741 6.22234C14.5932 6.65911 14.5001 7.12724 14.5001 7.6C14.5001 8.07276 14.5932 8.54089 14.7741 8.97766C14.955 9.41443 15.2202 9.81129 15.5545 10.1456C15.8888 10.4799 16.2857 10.745 16.7224 10.926C17.1592 11.1069 17.6273 11.2 18.1001 11.2C19.0549 11.2 19.9706 10.8207 20.6457 10.1456C21.3208 9.47045 21.7001 8.55478 21.7001 7.6C21.7001 6.64522 21.3208 5.72955 20.6457 5.05442C19.9706 4.37928 19.0549 4 18.1001 4ZM10.5001 7.6C10.5001 3.4028 13.9029 0 18.1001 0C22.2973 0 25.7001 3.4028 25.7001 7.6C25.7001 11.7972 22.2973 15.2 18.1001 15.2C13.9029 15.2 10.5001 11.7972 10.5001 7.6ZM61.3001 4C60.3453 4 59.4296 4.37928 58.7545 5.05442C58.0794 5.72955 57.7001 6.64522 57.7001 7.6C57.7001 8.55478 58.0794 9.47045 58.7545 10.1456C59.4296 10.8207 60.3453 11.2 61.3001 11.2C62.2549 11.2 63.1706 10.8207 63.8457 10.1456C64.5208 9.47045 64.9001 8.55478 64.9001 7.6C64.9001 6.64522 64.5208 5.72955 63.8457 5.05442C63.1706 4.37928 62.2549 4 61.3001 4ZM53.7001 7.6C53.7001 3.4028 57.1029 0 61.3001 0C65.4973 0 68.9001 3.4028 68.9001 7.6C68.9001 11.7972 65.4973 15.2 61.3001 15.2C57.1029 15.2 53.7001 11.7972 53.7001 7.6ZM34.1001 0C29.9029 0 26.5001 3.4028 26.5001 7.6C26.5001 11.7972 29.9029 15.2 34.1001 15.2H45.3001C46.0877 15.2 46.8473 15.08 47.5617 14.8576L49.7001 16L52.0073 11.6784C52.5934 10.5783 52.9 9.35091 52.9001 8.1044V7.6C52.9001 3.4028 49.4973 0 45.3001 0H34.1001ZM48.9001 7.6C48.9001 6.64522 48.5208 5.72955 47.8457 5.05442C47.1706 4.37928 46.2549 4 45.3001 4H34.1001C33.6273 4 33.1592 4.09312 32.7224 4.27403C32.2857 4.45495 31.8888 4.72012 31.5545 5.05442C31.2202 5.38871 30.955 5.78557 30.7741 6.22234C30.5932 6.65911 30.5001 7.12724 30.5001 7.6C30.5001 8.07276 30.5932 8.54089 30.7741 8.97766C30.955 9.41443 31.2202 9.81129 31.5545 10.1456C31.8888 10.4799 32.2857 10.745 32.7224 10.926C33.1592 11.1069 33.6273 11.2 34.1001 11.2H45.3001C46.25 11.2 47.1615 10.8246 47.8358 10.1555C48.5102 9.48642 48.8927 8.57792 48.9001 7.628V7.6Z" fill="#AAD9D1"/>
<path d="M70.5 1C70.5 1.26522 70.3946 1.51957 70.2071 1.70711C70.0196 1.89464 69.7652 2 69.5 2C69.2348 2 68.9804 1.89464 68.7929 1.70711C68.6054 1.51957 68.5 1.26522 68.5 1C68.5 0.734784 68.6054 0.48043 68.7929 0.292893C68.9804 0.105357 69.2348 0 69.5 0C69.7652 0 70.0196 0.105357 70.2071 0.292893C70.3946 0.48043 70.5 0.734784 70.5 1Z" fill="#AAD9D1"/>
</g>
<defs>
<clipPath id="clip0_4054_350">
<rect width="70.4" height="16" fill="white" transform="translate(0.100098)"/>
</clipPath>
</defs>
</svg>
