<svg width="33" height="32" viewBox="0 0 33 32" fill="none" xmlns="http://www.w3.org/2000/svg">
<rect x="32.4409" y="31.5" width="31" height="31" rx="4.5" transform="rotate(-180 32.4409 31.5)" stroke="#048C80"/>
<path d="M21.8358 12.7899C20.7259 12.3499 19.9409 11.2666 19.9409 10C19.9409 8.3431 21.2841 7 22.9409 7C24.5978 7 25.9409 8.3431 25.9409 10C25.9409 11.3062 25.1061 12.4175 23.9409 12.8293V19.1707C25.1061 19.5825 25.9409 20.6938 25.9409 22C25.9409 23.6568 24.5978 25 22.9409 25C21.2841 25 19.9409 23.6568 19.9409 22C19.9409 20.6938 20.7757 19.5825 21.9409 19.1707V16.0004C21.1053 16.6281 20.0665 17 18.9409 17H14.9409C13.5574 17 12.3927 17.9365 12.046 19.2101C13.156 19.6501 13.9409 20.7334 13.9409 22C13.9409 23.6568 12.5978 25 10.9409 25C9.28402 25 7.94092 23.6568 7.94092 22C7.94092 20.6668 8.81062 19.5367 10.0135 19.1461C10.4187 16.7915 12.4706 15 14.9409 15L18.9409 15C20.3244 15 21.4891 14.0635 21.8358 12.7899Z" fill="url(#paint0_linear_4054_472)"/>
<defs>
<linearGradient id="paint0_linear_4054_472" x1="7.94092" y1="25" x2="33.5218" y2="6.45954" gradientUnits="userSpaceOnUse">
<stop stop-color="#AAD9D1"/>
<stop offset="1" stop-color="#017373"/>
</linearGradient>
</defs>
</svg>
